<svg xmlns="http://www.w3.org/2000/svg" viewBox="0 0 64 64" width="64" height="64" fill="none">
  <defs>
    <linearGradient id="music-bg" x1="8" y1="8" x2="56" y2="56" gradientUnits="userSpaceOnUse">
      <stop offset="0" stop-color="#ff4f7a"/>
      <stop offset="0.55" stop-color="#ff2d55"/>
      <stop offset="1" stop-color="#ff7a59"/>
    </linearGradient>
    <linearGradient id="music-gloss" x1="6" y1="6" x2="6" y2="30" gradientUnits="userSpaceOnUse">
      <stop offset="0" stop-color="#ffffff" stop-opacity="0.45"/>
      <stop offset="1" stop-color="#ffffff" stop-opacity="0"/>
    </linearGradient>
  </defs>

  <rect x="6" y="6" width="52" height="52" rx="14" fill="url(#music-bg)"/>
  <path d="M20 6H44A14 14 0 0 1 58 20V30H6V20A14 14 0 0 1 20 6Z" fill="url(#music-gloss)"/>

  <g opacity=".18" transform="translate(0 1)" fill="#000">
    <path d="M24.5 20L42.5 16L42.5 22L24.5 26Z"/>
    <rect x="24.5" y="20" width="4" height="22" rx="2"/>
    <rect x="38.5" y="16" width="4" height="22" rx="2"/>
    <circle cx="22" cy="47" r="6.5"/>
    <circle cx="41" cy="41" r="6.5"/>
  </g>
  <g fill="#fff">
    <path d="M24.5 20L42.5 16L42.5 22L24.5 26Z"/>
    <rect x="24.5" y="20" width="4" height="22" rx="2"/>
    <rect x="38.5" y="16" width="4" height="22" rx="2"/>
    <circle cx="22" cy="47" r="6.5"/>
    <circle cx="41" cy="41" r="6.5"/>
  </g>
</svg>
