<svg xmlns="http://www.w3.org/2000/svg" viewBox="0 0 64 64" width="64" height="64">
  <defs>
    <linearGradient id="racer-grad" x1="0%" y1="0%" x2="100%" y2="100%">
      <stop offset="0%" stop-color="#ff3366" />
      <stop offset="100%" stop-color="#8b5cf6" />
    </linearGradient>
  </defs>
  <!-- Background glowing layers -->
  <circle cx="32" cy="32" r="30" fill="none" stroke="url(#racer-grad)" stroke-width="2" opacity="0.3"/>
  <circle cx="32" cy="32" r="28" fill="#0c0c16" />
  <!-- Retro Sports Car Vector -->
  <path d="M12 42h40v4c0 1.1-.9 2-2 2H14a2 2 0 0 1-2-2v-4z" fill="#1e1e38" />
  <path d="M14 36l3-10c.5-1.5 1.8-2.5 3.3-2.5h23.4c1.5 0 2.8 1 3.3 2.5l3 10c.6 1.8-.7 3.5-2.6 3.5H16.6c-1.9 0-3.2-1.7-2.6-3.5z" fill="url(#racer-grad)" />
  <!-- Windshield -->
  <path d="M19 32l1.8-6c.2-.6.7-1 1.3-1h19.8c.6 0 1.1.4 1.3 1l1.8 6H19z" fill="#0c0c16" opacity="0.8" />
  <!-- Headlights -->
  <circle cx="20" cy="38" r="4" fill="#60a5fa" />
  <circle cx="44" cy="38" r="4" fill="#60a5fa" />
  <circle cx="20" cy="38" r="2" fill="#fff" />
  <circle cx="44" cy="38" r="2" fill="#fff" />
  <!-- Tires -->
  <rect x="15" y="44" width="8" height="6" rx="2" fill="#111" />
  <rect x="41" y="44" width="8" height="6" rx="2" fill="#111" />
</svg>
