<svg xmlns="http://www.w3.org/2000/svg" viewBox="0 0 24 24" width="24" height="24" fill="none">
  <path d="M12 15.2a3.2 3.2 0 1 0 0-6.4 3.2 3.2 0 0 0 0 6.4Z" stroke="#2c2c2e" stroke-width="2"/>
  <path d="M19.4 13a7.9 7.9 0 0 0 0-2l2-1.2-2-3.4-2.3.7a8.2 8.2 0 0 0-1.7-1L15 3h-6l-.4 2.1a8.2 8.2 0 0 0-1.7 1L4.6 5.4 2.6 8.8 4.6 10a7.9 7.9 0 0 0 0 2l-2 1.2 2 3.4 2.3-.7a8.2 8.2 0 0 0 1.7 1L9 21h6l.4-2.1a8.2 8.2 0 0 0 1.7-1l2.3.7 2-3.4-2-1.2Z" stroke="#2c2c2e" stroke-width="1.6" stroke-linejoin="round"/>
</svg>
