<svg xmlns="http://www.w3.org/2000/svg" viewBox="0 0 64 64" width="64" height="64" fill="none">
  <defs>
    <linearGradient id="paper" x1="0" y1="6" x2="0" y2="60">
      <stop offset="0" stop-color="#ffffff"/>
      <stop offset="1" stop-color="#f2f2f7"/>
    </linearGradient>
    <linearGradient id="fold" x1="40" y1="6" x2="54" y2="20">
      <stop offset="0" stop-color="#f6f6fb"/>
      <stop offset="1" stop-color="#e5e5ea"/>
    </linearGradient>
    <filter id="shadow" x="-20%" y="-20%" width="140%" height="160%">
      <feDropShadow dx="0" dy="2" stdDeviation="2" flood-color="#000000" flood-opacity="0.18"/>
    </filter>
  </defs>

  <!-- Sheet -->
  <path filter="url(#shadow)" d="M16 6h23.5L54 20.5V56c0 4.4-2.4 8-8 8H16c-5.6 0-8-3.6-8-8V14c0-5.6 2.4-8 8-8Z" fill="url(#paper)"/>
  <path d="M16 6h23.5L54 20.5V56c0 4.4-2.4 8-8 8H16c-5.6 0-8-3.6-8-8V14c0-5.6 2.4-8 8-8Z" stroke="#c7c7cc" stroke-width="2"/>

  <!-- Folded corner -->
  <path d="M39.5 6V20c0 3 1.8 4.5 4.5 4.5H54" fill="url(#fold)"/>
  <path d="M39.5 6V20c0 3 1.8 4.5 4.5 4.5H54" stroke="#d1d1d6" stroke-width="2" stroke-linejoin="round"/>

  <!-- Lines -->
  <path d="M20 32h26" stroke="#8e8e93" stroke-width="2.5" stroke-linecap="round"/>
  <path d="M20 40h22" stroke="#8e8e93" stroke-width="2.5" stroke-linecap="round" opacity="0.95"/>
  <path d="M20 48h18" stroke="#8e8e93" stroke-width="2.5" stroke-linecap="round" opacity="0.85"/>
</svg>
