<svg xmlns="http://www.w3.org/2000/svg" viewBox="0 0 64 64" width="64" height="64" fill="none">
  <defs>
    <linearGradient id="br-bg" x1="6" y1="6" x2="58" y2="58" gradientUnits="userSpaceOnUse">
      <stop offset="0" stop-color="#1f232b"/>
      <stop offset="0.55" stop-color="#151922"/>
      <stop offset="1" stop-color="#0f131a"/>
    </linearGradient>
    <linearGradient id="br-ring" x1="14" y1="14" x2="50" y2="50" gradientUnits="userSpaceOnUse">
      <stop offset="0" stop-color="#6ed2ff"/>
      <stop offset="1" stop-color="#2979ff"/>
    </linearGradient>
    <linearGradient id="br-core" x1="21" y1="17" x2="45" y2="47" gradientUnits="userSpaceOnUse">
      <stop offset="0" stop-color="#e9f5ff"/>
      <stop offset="1" stop-color="#c4dfff"/>
    </linearGradient>
  </defs>

  <!-- BrowOSer tile -->
  <rect x="6" y="6" width="52" height="52" rx="14" fill="url(#br-bg)"/>

  <!-- Orbital browser mark -->
  <circle cx="32" cy="32" r="19" fill="url(#br-ring)"/>
  <circle cx="32" cy="32" r="14" fill="url(#br-core)"/>

  <!-- Latitude / longitude lines -->
  <ellipse cx="32" cy="32" rx="10.2" ry="14" stroke="#4b93ff" stroke-width="1.8"/>
  <ellipse cx="32" cy="32" rx="14" ry="6" stroke="#4b93ff" stroke-width="1.8"/>
  <path d="M18 32h28" stroke="#4b93ff" stroke-width="1.8"/>

  <!-- Stylized B for BrowOSer -->
  <path d="M26.5 22h7.8c2.8 0 4.7 1.6 4.7 4 0 1.9-1.1 3-2.8 3.5 2.3 0.5 3.8 2 3.8 4.5 0 3.2-2.4 5-6.3 5h-7.2V22Zm3.6 3v3.5h3.4c1.1 0 1.9-0.6 1.9-1.7 0-1.2-0.8-1.8-2-1.8h-3.3Zm0 6.5v4h3.8c1.5 0 2.3-0.7 2.3-1.9 0-1.4-1-2.1-2.7-2.1h-3.4Z" fill="#0f1722"/>
</svg>
